<svg
  width="500"
  height="500"
  viewBox="0 0 500 500"
  fill="none"
  xmlns="http://www.w3.org/2000/svg"
>
  <path
    d="M37.6228 39.2377C24.3416 42.9486 17.9939 49.5892 13.5017 64.7259C11.0603 73.0267 11.158 98.9056 13.5994 127.714C13.7947 129.57 14.283 134.648 14.5759 138.945C14.9666 143.242 15.4548 148.32 15.6501 150.175C15.8455 152.031 16.2361 157.109 16.6267 161.406C17.2126 169.609 18.8728 185.136 19.5564 189.238C19.7517 190.605 20.1423 194.316 20.533 197.538C21.1189 202.714 21.8025 207.109 23.365 214.238C24.4392 219.511 29.5173 230.449 34.2048 237.675C44.7517 253.984 61.6462 267.167 80.1033 273.71C82.8376 274.589 85.865 275.761 86.9392 276.249C89.8689 277.519 104.615 280.742 111.353 281.62C114.576 282.011 122.388 282.402 128.638 282.402C134.888 282.499 139.771 282.792 139.381 283.085C138.795 283.476 133.033 284.745 120.142 287.285C119.068 287.48 115.552 288.359 112.33 289.335C109.107 290.214 105.201 291.288 103.541 291.679C98.658 293.046 85.9626 298.32 79.615 301.738C70.7283 306.523 62.7205 313.359 58.2283 320.097C53.3455 327.421 52.2712 331.035 51.5876 341.288C50.4158 358.867 60.6697 381.425 81.8611 407.792C103.541 434.843 125.025 451.738 146.607 458.964C155.201 461.796 169.361 461.992 176.783 459.355C194.361 453.105 209.302 436.992 222.974 409.452C230.494 394.316 241.431 365.117 247.095 344.609C248.951 338.066 249.927 337.187 250.904 341.288C251.783 345.097 253.541 351.054 259.791 372.245C274.244 420.488 289.576 445.878 310.181 455.253C317.408 458.574 320.826 459.16 331.568 459.062C342.115 458.964 351.295 456.425 363.306 450.175C372.291 445.488 389.381 434.452 392.115 431.425C392.408 431.132 394.556 429.374 396.998 427.421C402.076 423.32 411.744 413.456 417.017 407.011C418.97 404.57 421.314 401.738 422.193 400.663C424.927 397.441 434.107 383.183 434.107 382.206C434.107 381.718 434.693 380.546 435.474 379.765C436.256 378.886 438.209 374.199 439.967 369.413C450.513 339.238 438.697 314.921 405.299 298.417C392.603 292.07 376.783 286.894 362.818 284.355C355.689 282.988 357.545 282.499 369.459 282.402C394.263 282.304 415.162 277.226 433.912 266.777C457.447 253.593 475.025 228.105 477.564 203.398C477.955 199.687 478.345 196.367 478.541 196.074C478.736 195.585 479.029 193.339 480.494 179.667C480.787 177.421 481.177 173.71 481.47 171.367C481.666 169.12 482.154 164.14 482.545 160.429C482.838 156.62 483.228 152.031 483.424 150.175C483.619 148.32 484.107 142.753 484.4 137.968C484.791 133.085 485.181 127.617 485.377 125.761C487.33 105.839 487.916 78.8861 486.646 71.2689C484.107 56.3275 478.834 47.1478 470.24 42.7533C450.416 32.597 426.099 38.847 390.455 63.1634C377.662 71.9525 374.635 74.2962 366.236 81.3275C335.084 107.695 299.537 148.222 271.802 189.238C262.916 202.324 250.513 222.831 250.513 224.394C250.513 226.64 248.756 225.077 246.705 220.878C244.068 215.214 233.521 198.32 226.197 187.773C219.947 178.691 205.592 158.964 204.127 157.402C203.638 156.816 202.076 154.863 200.709 153.105C199.342 151.347 197.779 149.394 197.291 148.808C196.705 148.222 193.482 144.316 190.064 140.019C177.955 125.175 153.931 99.9798 140.162 87.6751C138.306 86.015 135.865 83.8665 134.791 82.89C113.502 63.9447 77.9548 43.0463 60.3767 39.3353C54.8103 38.0658 41.9197 38.0658 37.6228 39.2377Z"
    fill="black"
  />
</svg>