<svg
  width="500"
  height="500"
  viewBox="0 0 500 500"
  fill="none"
  xmlns="http://www.w3.org/2000/svg"
>
  <path
    d="M156.662 285.255C129.325 312.592 110.94 324.386 138.277 351.723C165.614 379.06 177.409 360.675 204.745 333.338L249.915 288.169C260.629 277.454 278.204 282.767 275.29 297.637C272.813 310.275 266.734 322.261 257.032 331.963L204.785 384.21C178.207 410.788 134.501 410.172 107.164 382.836C79.8278 355.499 79.2123 311.793 105.79 285.215L158.037 232.968C167.74 223.265 179.726 217.187 192.364 214.71C207.234 211.795 212.547 229.37 201.832 240.084L156.662 285.255ZM392.836 97.1644C420.172 124.501 420.788 168.207 394.21 194.785L341.963 247.032C332.261 256.734 320.276 262.812 307.638 265.289C292.768 268.203 287.455 250.628 298.169 239.914L343.338 194.745C370.675 167.408 389.06 155.614 361.723 128.277C334.386 100.94 322.592 119.325 295.255 146.662L250.085 191.831C239.371 202.546 221.796 197.233 224.71 182.363C227.187 169.725 233.266 157.739 242.968 148.037L295.216 95.7896C321.793 69.2122 365.499 69.8277 392.836 97.1644Z"
    fill="black"
  />
  <path
    d="M237.272 276.77C205.695 308.347 197.674 316.368 185.653 304.347C173.633 292.326 181.653 284.305 213.23 252.728L262.728 203.23C294.901 171.057 302.326 163.632 314.347 175.653C326.368 187.674 318.943 195.099 286.77 227.272L237.272 276.77Z"
    fill="black"
  />
</svg>