<svg xmlns="http://www.w3.org/2000/svg" xml:space="preserve" viewBox="0 0 528.707 370.373"
  width="528.707" height="370.373">
  <path
    d="M1587.28 793.648V1984.11l1028.28-593.78ZM3881.34 2343.28c-46.36 170.89-176.7 304.14-350.49 350.48-307.03 84-1549.64 84-1549.64 84s-1239.702 0-1546.73-84c-170.902-46.34-304.14-179.59-353.378-350.48C0 2036.25 0 1390.33 0 1390.33s0-645.92 81.102-955.85C130.34 266.48 263.578 130.352 434.48 84 741.508 0 1981.21 0 1981.21 0s1242.61 0 1549.64 84c173.79 46.352 304.13 182.48 350.49 350.48 83.98 309.93 83.98 955.85 83.98 955.85s0 645.92-83.98 952.95"
    transform="matrix(.13333 0 0 -.13333 0 370.373)"
  />
</svg>